<svg width="1203" height="234" viewBox="0 0 1203 234" fill="none" xmlns="http://www.w3.org/2000/svg">
<path d="M950.847 203.944C939.163 203.944 928.749 201.15 919.605 195.562C910.631 189.974 903.519 182.354 898.269 172.702C893.189 163.05 890.649 152.043 890.649 139.682C890.649 127.321 893.189 116.314 898.269 106.662C903.519 97.01 910.631 89.39 919.605 83.802C928.749 78.214 939.163 75.42 950.847 75.42C959.314 75.42 966.934 77.0287 973.707 80.246C980.65 83.4633 986.323 87.9507 990.725 93.708C995.297 99.296 997.837 105.731 998.345 113.012V165.082C997.837 172.363 995.382 178.967 990.979 184.894C986.577 190.651 980.904 195.308 973.961 198.864C967.019 202.251 959.314 203.944 950.847 203.944ZM957.705 168.892C963.293 168.892 968.119 167.707 972.183 165.336C976.247 162.796 979.465 159.325 981.835 154.922C984.206 150.519 985.391 145.439 985.391 139.682C985.391 133.925 984.206 128.929 981.835 124.696C979.634 120.293 976.417 116.822 972.183 114.282C968.119 111.742 963.378 110.472 957.959 110.472C952.541 110.472 947.715 111.742 943.481 114.282C939.417 116.822 936.115 120.293 933.575 124.696C931.205 129.099 930.019 134.094 930.019 139.682C930.019 145.27 931.205 150.265 933.575 154.668C935.946 159.071 939.248 162.542 943.481 165.082C947.715 167.622 952.456 168.892 957.705 168.892ZM1021.97 201.404H983.867V168.13L989.709 138.158L983.105 108.186V17H1021.97V201.404Z" fill="#313131"/>
<path d="M825.775 204.198C812.398 204.198 800.46 201.489 789.961 196.07C779.632 190.482 771.504 182.777 765.577 172.956C759.65 163.135 756.687 152.043 756.687 139.682C756.687 127.321 759.566 116.314 765.323 106.662C771.25 96.8407 779.208 89.136 789.199 83.548C799.19 77.96 810.45 75.166 822.981 75.166C835.173 75.166 845.926 77.7907 855.239 83.04C864.552 88.2893 871.834 95.5707 877.083 104.884C882.502 114.197 885.211 124.865 885.211 136.888C885.211 139.089 885.042 141.46 884.703 144C884.534 146.371 884.11 149.165 883.433 152.382L777.007 152.636V125.966L866.923 125.712L850.159 136.888C849.99 129.776 848.889 123.934 846.857 119.362C844.825 114.621 841.777 111.065 837.713 108.694C833.818 106.154 828.992 104.884 823.235 104.884C817.139 104.884 811.805 106.323 807.233 109.202C802.83 111.911 799.359 115.806 796.819 120.886C794.448 125.966 793.263 132.147 793.263 139.428C793.263 146.709 794.533 152.975 797.073 158.224C799.782 163.304 803.508 167.283 808.249 170.162C813.16 172.871 818.917 174.226 825.521 174.226C831.617 174.226 837.12 173.21 842.031 171.178C846.942 168.977 851.26 165.759 854.985 161.526L876.321 182.862C870.225 189.974 862.859 195.308 854.223 198.864C845.587 202.42 836.104 204.198 825.775 204.198Z" fill="#313131"/>
<path d="M723.308 201.404L680.128 137.396L723.054 77.96H766.488L714.672 144.762L715.942 128.76L769.028 201.404H723.308ZM644.314 201.404V17H683.176V201.404H644.314Z" fill="#313131"/>
<path d="M590.696 204.198C577.996 204.198 566.481 201.404 556.152 195.816C545.823 190.228 537.695 182.523 531.768 172.702C525.841 162.881 522.878 151.874 522.878 139.682C522.878 127.321 525.841 116.314 531.768 106.662C537.864 96.8407 546.077 89.136 556.406 83.548C566.735 77.96 578.335 75.166 591.204 75.166C600.856 75.166 609.662 76.8593 617.62 80.246C625.748 83.4633 632.945 88.374 639.21 94.978L614.318 119.87C611.44 116.653 608.053 114.282 604.158 112.758C600.433 111.234 596.115 110.472 591.204 110.472C585.616 110.472 580.621 111.742 576.218 114.282C571.985 116.653 568.598 120.039 566.058 124.442C563.688 128.675 562.502 133.671 562.502 139.428C562.502 145.185 563.688 150.265 566.058 154.668C568.598 159.071 572.07 162.542 576.472 165.082C580.875 167.622 585.785 168.892 591.204 168.892C596.284 168.892 600.772 168.045 604.666 166.352C608.73 164.489 612.202 161.949 615.08 158.732L639.718 183.624C633.284 190.397 626.002 195.562 617.874 199.118C609.746 202.505 600.687 204.198 590.696 204.198Z" fill="#313131"/>
<path d="M444.208 203.944C432.862 203.944 422.702 201.15 413.728 195.562C404.922 189.974 397.895 182.354 392.646 172.702C387.566 163.05 385.026 152.043 385.026 139.682C385.026 127.321 387.566 116.314 392.646 106.662C397.895 97.0099 404.922 89.3899 413.728 83.8019C422.702 78.2139 432.862 75.4199 444.208 75.4199C452.505 75.4199 459.956 77.0286 466.56 80.2459C473.333 83.4633 478.836 87.9506 483.07 93.7079C487.303 99.2959 489.674 105.731 490.182 113.012V166.352C489.674 173.633 487.303 180.153 483.07 185.91C479.006 191.498 473.587 195.901 466.814 199.118C460.04 202.335 452.505 203.944 444.208 203.944ZM452.082 168.892C460.379 168.892 467.068 166.183 472.148 160.764C477.228 155.176 479.768 148.149 479.768 139.682C479.768 133.925 478.582 128.845 476.212 124.442C474.01 120.039 470.793 116.653 466.56 114.282C462.496 111.742 457.754 110.472 452.336 110.472C446.917 110.472 442.091 111.742 437.858 114.282C433.794 116.653 430.492 120.039 427.952 124.442C425.581 128.845 424.396 133.925 424.396 139.682C424.396 145.27 425.581 150.265 427.952 154.668C430.322 159.071 433.624 162.542 437.858 165.082C442.091 167.622 446.832 168.892 452.082 168.892ZM478.244 201.404V168.13L484.086 138.158L478.244 108.186V77.9599H516.344V201.404H478.244Z" fill="#313131"/>
<path d="M311.054 204.198C299.709 204.198 289.803 202.166 281.336 198.102C273.039 193.869 265.927 188.027 260 180.576L286.67 154.922C289.718 159.155 293.274 162.373 297.338 164.574C301.571 166.775 306.313 167.876 311.562 167.876C316.642 167.876 321.045 166.86 324.77 164.828C328.495 162.627 331.459 159.579 333.66 155.684C335.861 151.62 336.962 146.625 336.962 140.698V22.0801H377.094V138.412C377.094 151.789 374.385 163.389 368.966 173.21C363.547 183.031 355.927 190.651 346.106 196.07C336.285 201.489 324.601 204.198 311.054 204.198Z" fill="#313131"/>
<path d="M1081.66 202.892C1075.05 202.892 1068.93 201.735 1063.31 199.42C1057.77 197.106 1052.9 193.882 1048.68 189.748C1044.46 185.615 1041.2 180.82 1038.88 175.364C1036.57 169.826 1035.41 163.874 1035.41 157.508C1035.41 151.06 1036.57 145.108 1038.88 139.652C1041.2 134.196 1044.42 129.443 1048.56 125.392C1052.69 121.259 1057.53 118.076 1063.06 115.844C1068.69 113.53 1074.8 112.372 1081.42 112.372C1087.95 112.372 1093.98 113.53 1099.52 115.844C1105.14 118.076 1110.02 121.259 1114.15 125.392C1118.37 129.443 1121.63 134.238 1123.95 139.776C1126.26 145.232 1127.42 151.184 1127.42 157.632C1127.42 163.998 1126.26 169.95 1123.95 175.488C1121.63 180.944 1118.41 185.739 1114.28 189.872C1110.14 193.923 1105.27 197.106 1099.64 199.42C1094.11 201.735 1088.11 202.892 1081.66 202.892ZM1081.42 185.16C1086.62 185.16 1091.17 184.003 1095.06 181.688C1099.02 179.374 1102.08 176.15 1104.23 172.016C1106.38 167.8 1107.46 162.964 1107.46 157.508C1107.46 153.375 1106.84 149.655 1105.6 146.348C1104.36 142.959 1102.58 140.066 1100.26 137.668C1097.95 135.188 1095.18 133.328 1091.96 132.088C1088.81 130.766 1085.3 130.104 1081.42 130.104C1076.21 130.104 1071.62 131.262 1067.65 133.576C1063.77 135.808 1060.75 138.991 1058.6 143.124C1056.45 147.175 1055.38 151.97 1055.38 157.508C1055.38 161.642 1056 165.403 1057.24 168.792C1058.48 172.182 1060.21 175.116 1062.44 177.596C1064.76 179.994 1067.53 181.854 1070.75 183.176C1073.98 184.499 1077.53 185.16 1081.42 185.16ZM1164.01 202.768C1156.82 202.768 1150.62 201.611 1145.41 199.296C1140.28 196.899 1135.57 193.303 1131.27 188.508L1143.92 175.984C1146.73 179.208 1149.83 181.73 1153.22 183.548C1156.69 185.284 1160.7 186.152 1165.25 186.152C1169.38 186.152 1172.56 185.408 1174.8 183.92C1177.11 182.432 1178.27 180.366 1178.27 177.72C1178.27 175.323 1177.52 173.38 1176.04 171.892C1174.55 170.404 1172.56 169.123 1170.08 168.048C1167.69 166.974 1165 165.94 1162.02 164.948C1159.13 163.956 1156.24 162.84 1153.34 161.6C1150.45 160.278 1147.76 158.666 1145.28 156.764C1142.89 154.78 1140.94 152.342 1139.46 149.448C1137.97 146.472 1137.22 142.752 1137.22 138.288C1137.22 132.915 1138.5 128.286 1141.07 124.4C1143.71 120.515 1147.35 117.58 1151.98 115.596C1156.61 113.53 1161.94 112.496 1167.98 112.496C1174.09 112.496 1179.67 113.571 1184.72 115.72C1189.84 117.87 1194.06 120.804 1197.36 124.524L1184.72 137.048C1182.07 134.32 1179.38 132.295 1176.66 130.972C1174.01 129.65 1170.99 128.988 1167.6 128.988C1164.21 128.988 1161.53 129.65 1159.54 130.972C1157.56 132.212 1156.57 134.031 1156.57 136.428C1156.57 138.66 1157.31 140.479 1158.8 141.884C1160.29 143.207 1162.23 144.364 1164.63 145.356C1167.11 146.348 1169.79 147.34 1172.69 148.332C1175.66 149.324 1178.6 150.482 1181.49 151.804C1184.38 153.127 1187.03 154.822 1189.43 156.888C1191.91 158.872 1193.89 161.435 1195.38 164.576C1196.87 167.635 1197.61 171.438 1197.61 175.984C1197.61 184.334 1194.64 190.906 1188.68 195.7C1182.73 200.412 1174.51 202.768 1164.01 202.768Z" fill="#1EBA5D"/>
<rect width="229" height="229" rx="20" fill="#1EBA5D"/>
<path d="M122.803 198.135L106.805 182.137L135.561 153.381L75.6194 93.4394L46.8637 122.195L30.8657 106.197L42.206 94.857L30.8657 83.5167L48.2812 66.1012L36.9409 54.7609L54.7614 36.9404L66.1017 48.2807L83.5172 30.8652L94.8575 42.2055L106.198 30.8652L122.196 46.8632L93.4399 75.619L153.382 135.561L182.137 106.805L198.135 122.803L186.795 134.143L198.135 145.483L180.72 162.899L192.06 174.239L174.24 192.06L162.899 180.719L145.484 198.135L134.144 186.795L122.803 198.135Z" fill="white"/>
</svg>
